<?xml version="1.0" standalone="no"?>
<!DOCTYPE svg PUBLIC "-//W3C//DTD SVG 20010904//EN"
 "http://www.w3.org/TR/2001/REC-SVG-20010904/DTD/svg10.dtd">
<svg version="1.0" xmlns="http://www.w3.org/2000/svg"
 width="698.000000pt" height="704.000000pt" viewBox="0 0 698.000000 704.000000"
 preserveAspectRatio="xMidYMid meet">

<g transform="translate(0.000000,704.000000) scale(0.100000,-0.100000)"
fill="#000000" stroke="none">
<path d="M1660 6524 c-591 -39 -924 -48 -1101 -30 l-87 9 -5 -54 c-11 -99 -29
-1320 -24 -1574 3 -145 12 -296 21 -360 8 -60 20 -182 25 -270 6 -88 17 -182
26 -210 12 -42 15 -128 14 -535 0 -476 -5 -738 -30 -1650 -13 -481 -2 -1049
23 -1247 l12 -93 66 -1 c413 -4 934 -20 1025 -32 75 -10 247 -17 535 -21 234
-3 547 -11 695 -17 280 -13 1197 -1 1735 22 129 6 532 14 895 19 518 7 676 12
735 24 41 8 112 15 157 15 69 1 82 4 86 19 4 16 5 16 6 0 2 -29 19 -20 31 16
10 32 48 270 71 456 13 101 3 2989 -11 3360 -5 129 -10 384 -10 565 0 182 -7
445 -15 585 -8 140 -20 411 -26 601 l-13 346 -465 7 c-1624 22 -1748 21 -1884
-22 -44 -13 -104 -16 -377 -16 -196 1 -353 5 -395 12 -161 27 -975 74 -1320
77 -187 1 -365 1 -395 -1z m2033 -780 c236 -61 423 -239 508 -484 19 -55 23
-94 28 -265 l6 -200 117 -3 c113 -3 119 -4 134 -27 24 -36 15 -733 -11 -845
-86 -379 -383 -674 -760 -755 -126 -28 -314 -24 -440 9 -324 84 -585 325 -694
643 -44 129 -51 213 -51 588 0 325 1 353 18 368 14 13 44 17 132 19 l115 3 6
200 c5 170 9 211 28 270 117 361 499 574 864 479z m-2270 -3120 c56 -19 112
-77 127 -134 6 -22 10 -69 8 -103 l-3 -62 -47 1 c-69 1 -98 30 -98 99 0 65
-21 86 -87 92 -36 3 -56 -1 -80 -16 l-33 -21 0 -91 c0 -49 5 -99 10 -110 6
-10 63 -54 128 -98 123 -82 184 -140 208 -197 9 -22 14 -72 14 -149 0 -152
-24 -201 -120 -251 -45 -23 -183 -31 -236 -14 -112 35 -155 97 -157 224 l-2
81 52 0 c73 -1 91 -20 95 -98 3 -57 5 -63 37 -84 42 -28 95 -30 139 -3 45 28
55 60 49 166 -5 118 -17 135 -161 229 -177 115 -196 145 -196 302 1 142 37
207 135 241 46 16 166 14 218 -4z m2402 -19 c67 -41 89 -88 94 -192 l3 -83
-51 0 c-65 0 -91 23 -91 80 0 21 -5 50 -11 64 -13 27 -64 56 -99 56 -29 0 -77
-26 -90 -49 -6 -13 -10 -153 -10 -384 l0 -365 31 -26 c46 -39 101 -36 145 8
28 28 34 42 34 75 0 59 33 91 95 91 l45 0 0 -83 c0 -66 -5 -92 -22 -127 -38
-74 -110 -110 -223 -110 -114 0 -187 36 -225 110 -19 37 -20 60 -20 430 0 426
0 430 58 483 46 44 95 57 198 55 81 -3 96 -6 139 -33z m-559 4 c18 -20 19 -45
22 -474 3 -435 4 -453 22 -470 13 -12 20 -31 20 -57 l0 -38 -83 0 c-47 0 -88
5 -94 11 -7 7 -17 8 -29 1 -57 -29 -170 -19 -219 20 -14 11 -35 39 -48 61 -19
38 -22 60 -25 228 -5 230 5 286 57 341 28 29 47 40 87 47 50 10 116 1 155 -20
18 -9 19 -4 19 117 0 120 -1 128 -25 156 -16 19 -25 42 -25 64 l0 34 73 0 c62
0 77 -3 93 -21z m2594 -179 l0 -150 45 0 c45 0 45 0 45 -35 0 -41 -36 -85 -70
-85 -20 0 -20 -5 -20 -219 0 -201 2 -221 19 -242 13 -17 30 -24 53 -24 32 0
33 -1 36 -44 2 -24 -1 -48 -7 -54 -16 -16 -113 -12 -148 6 -17 9 -42 30 -57
47 l-26 32 0 249 0 249 -45 0 -45 0 6 43 c6 45 34 77 65 77 17 0 19 9 19 111
0 61 5 119 11 130 13 26 68 59 97 59 22 0 22 -1 22 -150z m-3835 -169 c50 -22
91 -69 105 -119 5 -20 10 -76 10 -123 0 -121 -3 -123 -176 -127 l-134 -4 0
-87 c0 -105 12 -124 86 -125 38 -1 50 4 70 27 14 16 24 41 24 58 0 44 31 69
85 69 l45 0 0 -73 c0 -94 -20 -133 -86 -167 -40 -21 -62 -25 -134 -25 -72 0
-92 4 -129 25 -53 30 -79 63 -91 116 -13 53 -12 380 0 425 27 98 101 149 214
149 47 0 85 -7 111 -19z m570 0 c50 -22 91 -69 105 -119 5 -20 10 -76 10 -123
0 -121 -3 -123 -176 -127 l-134 -4 0 -87 c0 -105 12 -124 86 -125 38 -1 50 4
70 27 14 16 24 41 24 58 0 44 31 69 85 69 l45 0 0 -70 c0 -140 -61 -195 -220
-195 -121 0 -185 36 -216 122 -16 46 -19 388 -4 444 27 98 101 149 214 149 47
0 85 -7 111 -19z m1589 3 c9 -8 16 -19 16 -23 0 -5 21 2 47 15 51 26 131 32
151 12 7 -7 12 -36 12 -66 l0 -55 -41 7 c-51 8 -109 -7 -143 -39 l-26 -24 0
-201 c0 -187 2 -204 20 -227 11 -14 20 -41 20 -59 l0 -34 -115 0 -115 0 0 34
c0 22 9 45 25 64 l25 30 0 222 0 222 -25 30 c-17 20 -25 42 -25 69 l0 39 79 0
c59 0 84 -4 95 -16z m445 -6 c4 -13 25 -140 46 -283 21 -143 40 -265 44 -272
3 -7 26 115 49 270 24 155 48 287 54 294 6 8 35 13 74 13 l64 0 0 -38 c0 -21
-7 -47 -15 -60 -10 -13 -48 -201 -97 -474 -44 -249 -87 -463 -94 -476 -12 -19
-23 -22 -74 -22 l-60 0 0 45 c0 35 6 52 24 70 19 19 29 46 41 112 8 49 18 98
20 111 5 20 2 22 -34 22 -21 0 -43 6 -49 13 -5 6 -17 55 -26 107 -56 312 -89
466 -102 481 -8 9 -14 36 -14 62 l0 47 70 0 c64 0 71 -2 79 -22z m599 7 c7
-14 12 -14 41 1 24 12 52 15 106 12 88 -4 119 -22 153 -89 22 -43 23 -51 20
-269 -3 -192 -6 -230 -21 -257 -26 -48 -65 -80 -113 -92 -60 -15 -93 -13 -141
9 l-43 19 0 -129 c0 -122 1 -130 25 -158 17 -20 25 -42 25 -66 l0 -36 -115 0
-115 0 0 39 c0 28 7 45 25 62 l25 24 0 409 0 408 -25 30 c-16 19 -25 42 -25
64 l0 34 85 0 c65 0 86 -3 93 -15z"/>
<path d="M3353 5631 c-174 -50 -311 -168 -387 -332 -46 -99 -56 -163 -56 -351
l0 -158 85 0 85 0 0 133 c0 72 4 158 10 191 38 232 260 396 485 358 168 -28
300 -140 351 -298 10 -32 17 -106 21 -216 l6 -168 83 0 84 0 0 158 c0 185 -14
262 -66 369 -70 146 -230 276 -390 317 -82 21 -231 20 -311 -3z"/>
<path d="M3459 5360 c-103 -18 -202 -99 -238 -196 -18 -47 -21 -78 -21 -214
l0 -160 316 0 316 0 -4 173 c-3 160 -5 175 -28 221 -29 57 -90 120 -140 146
-27 14 -151 45 -154 39 -1 -1 -22 -5 -47 -9z"/>
<path d="M2643 4343 c4 -300 7 -347 26 -420 42 -167 123 -304 250 -426 96 -92
205 -157 331 -199 90 -30 103 -32 255 -32 138 -1 171 2 238 22 295 85 519 307
609 604 20 68 22 97 26 431 l3 357 -871 0 -872 0 5 -337z m954 46 c68 -25 133
-125 133 -203 0 -34 -32 -111 -57 -138 -15 -17 -15 -26 6 -121 12 -56 25 -110
27 -119 3 -11 -5 -28 -20 -43 -24 -24 -29 -25 -165 -25 -149 0 -186 7 -195 38
-4 11 5 72 20 137 l26 117 -21 22 c-80 85 -63 225 37 310 46 39 140 51 209 25z"/>
<path d="M3463 4278 c-30 -15 -56 -72 -48 -107 3 -16 22 -43 41 -60 43 -40 43
-36 -1 -228 -5 -22 -3 -23 59 -23 l64 0 -19 83 c-27 118 -25 135 16 173 29 27
35 38 35 74 0 77 -76 122 -147 88z"/>
<path d="M3024 2160 c-49 -20 -54 -41 -54 -241 0 -173 1 -188 21 -213 26 -32
79 -35 127 -6 l32 20 0 204 0 204 -25 16 c-32 21 -74 28 -101 16z"/>
<path d="M1855 2145 c-22 -21 -25 -33 -25 -90 l0 -65 90 0 90 0 0 45 c0 55
-21 110 -48 124 -35 19 -81 13 -107 -14z"/>
<path d="M2425 2145 c-22 -21 -25 -33 -25 -90 l0 -65 90 0 90 0 0 45 c0 55
-21 110 -48 124 -35 19 -81 13 -107 -14z"/>
<path d="M5263 2160 l-33 -20 0 -210 c0 -208 0 -210 23 -225 61 -39 138 -26
156 27 17 48 14 351 -3 393 -24 57 -83 72 -143 35z"/>
</g>
</svg>
